Patient4_TMGait_0pt4_01_right_38_EMG.mot
version=1
nRows=33
nColumns=33
inDegrees=no
endheader
time	1LAddLong	2LGlutMax	3LGlutMed	4LIliopsoas	5LSemiMemb	6LBicFemLong	7LRecFem	8LVastMed	9LVastLat	10LGasMed	11LTibAnt	12lTibPost	13LPeroneusLong	14LSol	15LExtDigLong	16LFlexDigLong	17RAddLong	18RGlutMax	19RGlutMed	20RIliopsoas	21RSemiMemb	22RBicFemLong	23RRecFem	24RVastMed	25RVastLat	26RGasMed	27RTibAnt	28RTibPost	29RPeroneusLong	30RSol	31RExtDigLong	32RFlexDigLong
50.935	0.018616	-0.033569	0.079956	0.005798	0.049286	-0.081482	0.066681	-0.002136	-0.016479	0.059052	0.044556	0.28549	-0.15366	0.33173	0.06897	-0.41061	-0.027008	-0.059204	0.10559	-0.028687	-0.081177	0.03067	-0.020752	-0.00946	0.01236	0.24933	0.012665	-0.003052	0.068359	-0.037994	-0.000916	-0.000763
50.936	0.010681	-0.06424	0.037994	0.001831	0.060577	-0.086975	0.074158	-0.005341	-0.015411	0.31509	0.02121	-0.036926	-0.016327	0.29694	0.073395	0.049744	-0.020752	-0.044861	0.14496	-0.07431	-0.087738	0.027618	-0.042877	-0.043182	0.02594	0.3389	0.014648	-0.004425	0.05661	-0.022583	0.000458	-0.010834
50.937	0.007629	-0.063324	0.055847	0.020294	0.040283	-0.036011	0.061798	0.005798	-0.025635	0.3949	0.012817	0.033112	0.012207	0.21042	0.035095	0.46509	0.001068	-0.093689	0.007324	-0.030365	-0.20355	-0.014801	-0.032196	-0.02243	0.002747	0.38864	0.061188	-0.005493	0.015106	-0.057373	0.001984	-0.001373
50.938	0.005646	-0.04776	0.11993	0.011597	0.020599	0.027161	0.069275	-0.002441	-0.011444	0.078278	0.001831	-0.19348	-0.044403	0.19928	-0.007019	0.011749	0.014648	-0.018311	-0.20798	-0.009613	-0.26184	-0.02594	-0.03067	0.003204	0.002441	0.42694	0.074158	-0.003357	-0.040131	-0.12085	-0.000916	-0.000153
50.939	0.00473	-0.070038	0.058899	-0.007172	0.021362	0.016174	0.073395	0.004425	-0.016174	0.28564	-0.03067	-0.036011	-0.002899	0.63751	0.006409	0.39581	0.001678	-0.049133	-0.23651	-0.038147	-0.21561	-0.017395	-0.032349	-0.020142	-0.000916	0.42328	0.005951	-0.001678	0.12985	-0.053558	0.001221	0.002289
50.94	-0.000916	-0.0737	-0.003052	0.023651	-0.014038	-0.001526	0.081329	-0.001221	0.000763	0.58777	-0.014191	-0.20828	-0.03952	0.40894	-0.025024	-0.30045	-0.002289	-0.04364	-0.28503	0.000458	0.17777	-0.03418	-0.039978	-0.032196	0.012512	0.36713	-0.018158	-0.000916	0.15595	-0.020905	0	-0.003357
50.941	-0.005798	-0.069427	0.01709	0.01236	-0.019379	-0.006256	0.080872	0.005798	-0.004272	0.26764	-0.01236	0.070953	0.13458	0.83969	-0.041046	0.064087	-0.005798	-0.07431	-0.25803	0.022125	0.21164	-0.028687	-0.01709	-0.056305	0.019531	0.27176	0.061646	-0.003662	0.16251	-0.029297	0.00061	0.000916
50.942	0.007019	-0.084686	-0.039825	0.016327	0.020294	-0.022278	0.10544	0.007935	-0.010986	-0.5188	-0.022125	0.46173	0.22827	0.65079	-0.08606	-0.17975	0.009155	-0.10223	0.49622	0.018158	-0.041046	0.025177	-0.047302	-0.030518	-0.002441	0.18066	0.088806	-0.004425	0.19119	-0.04715	-0.000305	-0.001221
50.943	0.001221	-0.072479	-0.001678	-0.011902	0.025787	-0.020599	0.097656	-0.000153	-0.007782	-0.43671	0.001221	0.17807	0.1033	-1.0504	-0.12344	-0.2771	-0.008392	-0.16846	0.51437	0.010986	-0.070343	-0.013733	-0.04303	-0.00824	0.018768	0.099335	0.12238	-0.004883	0.028839	-0.007324	0.000916	0.009918
50.944	0.005798	-0.076294	0.05188	0.018921	0.019531	-0.001068	0.10239	-0.000458	-0.00824	-0.12909	0.019226	-0.099945	0.028076	-1.8974	-0.14023	0.16083	0.002289	-0.10956	-0.007477	0.028534	0.038605	-0.059662	-0.021515	-0.013123	0.02121	0.045319	0.10773	-0.001678	-0.046844	0.00473	-0.000916	0.010376
50.945	0.007172	-0.086365	-0.006561	0.020447	0.019989	0.007019	0.12787	0.002594	-0.013428	0.092773	0.01297	-0.045776	0.036774	-1.1612	-0.078125	0.084991	0.009613	-0.12207	-0.10941	-0.027008	0.15503	-0.12222	-0.034943	-0.052795	0.014648	0.005646	-0.12344	-0.010223	0.080261	0.000153	-0.001831	0.009918
50.946	0.006866	-0.090637	-0.018463	0.000153	0.006866	-0.001984	0.10666	-0.001221	0.012512	-0.087585	0.01297	-0.037231	0.026398	-0.18936	-0.063324	0.095673	0.029907	-0.13001	-0.11902	-0.05127	0.048676	-0.12848	-0.029449	-0.086975	-0.007935	-0.026093	0.012512	-0.011902	0.27008	-0.002594	0.001221	0.015259
50.947	0.006256	-0.06012	0.03006	0.010834	0.009613	-0.014648	0.066223	0.006256	0.045013	-0.15793	0.011597	-0.049438	0.031281	0.24353	-0.03952	0.033569	0.060883	-0.085297	-0.11032	-0.032654	-0.022278	-0.089722	-0.008698	-0.11002	-0.017548	-0.036469	0.20309	-0.008545	-0.24139	-0.10361	-0.001068	0.014038
50.948	0.001678	-0.048218	0.13519	-0.001984	0.015411	-0.000153	0.072174	0.008392	0.092163	-0.20905	0.007629	-0.029755	0.018616	0.31342	-0.014648	0.041351	0.10117	-0.08255	-0.089874	0.00061	0.018463	-0.055847	-0.019989	-0.088806	-0.00824	-0.050659	0.37796	-0.007477	-0.34698	-0.10605	0.001526	0.008545
50.949	0.005951	-0.063477	0.12268	-0.00885	0.010986	-0.007782	0.070343	0.00946	0.081482	-0.073547	0.005798	-0.032043	0.046082	0.06134	0.009155	0.02243	0.072632	-0.038452	-0.11292	0.12634	-0.059967	-0.059967	-0.027161	-0.044098	0.013885	-0.051727	0.25162	-0.008545	0.14343	-0.045166	0.00061	0.011139
50.95	-0.002594	-0.085602	0.088348	-0.003967	0.013123	0.01358	0.065613	-0.001831	-0.018158	-0.083923	0.003357	-0.046844	0.032959	-0.34607	0.018005	-0.028534	0.041351	-0.12039	-0.01709	0.1358	-0.020142	0.04837	-0.052185	-0.029602	0.018005	-0.058289	0.17242	-0.008392	-0.083923	-0.026245	-0.003815	0.00885
50.951	0.00351	-0.077209	0.039063	0.014191	0.006714	0.016937	0.023804	0.010529	-0.00351	-0.08606	0.02182	-0.20889	0.019531	-0.28107	0.021362	-0.065155	-0.002136	-0.04715	-0.00824	0.054626	0.059662	0.091248	-0.0177	-0.058746	0.025482	-0.059814	-0.076599	-0.010376	-0.006714	-0.10269	0.00061	0.001678
50.952	-0.002289	-0.066528	-0.040283	-0.009155	0.01297	0.018005	0.028534	0.007935	0.031433	-0.06424	-0.003357	-0.13779	0.013275	0.00351	0.03479	-0.077362	-0.050201	-0.05661	0.26413	-0.012665	-0.059967	0.043488	-0.094147	0.048218	0.047913	-0.058594	-0.38116	-0.007629	0.026245	-0.09964	0.002136	0.002136
50.953	0.006256	-0.037384	0.07019	-0.021973	0.000305	0.007629	0.042419	-0.005188	-0.020447	-0.057983	0.001831	0.22492	0.016174	0.1416	0.039978	0.008545	-0.06897	-0.032654	0.19073	-0.006256	-0.075684	0.035706	-0.09613	0.033569	0.050964	-0.06546	-0.54138	-0.010529	-0.3685	-0.032501	0.005035	-0.002747
50.954	0.004425	-0.001068	0.14526	0.008698	-0.005798	0.032959	0.023956	0.004425	-0.052338	-0.058136	0.010834	-0.14847	0.011139	0.09903	0.042877	0.022583	-0.081329	-0.018158	-0.34424	0.036011	-0.043182	0.049896	-0.089569	0.037842	0.042267	-0.069733	-0.32028	-0.00946	-0.44617	-0.02655	0.000305	-0.002594
50.955	0.013275	-0.069427	0.2066	0.005798	-0.008392	0.028229	0.065308	-0.000763	-0.035858	-0.089722	0.008087	0.060577	-0.010223	0.13489	0.035095	-0.001678	-0.050507	-0.009613	-0.015564	0.036316	0.095825	0.060883	-0.066223	-0.02243	0.042725	-0.072021	-0.23834	-0.010223	-0.10819	0.015106	0.001526	-0.00473
50.956	0.000153	-0.081635	-0.00412	0.005035	-0.013123	-0.000305	0.092621	-0.010376	0.010223	-0.090027	0.006866	-0.014496	-0.018921	0.20462	0.023956	-0.005798	-0.022125	-0.035095	0.029602	0.093994	0.057831	0.084686	-0.058289	-0.033875	0.037842	-0.072174	-0.21362	-0.011902	0.019226	-0.002899	0.001831	-0.013428
50.957	0.001526	-0.063171	0.061951	0.013123	0.021515	-0.009003	0.10086	-0.009003	-0.004425	-0.05127	0.001373	-0.032196	-0.018311	0.21606	0.030518	0.002441	-0.014954	0.015869	-0.11826	-0.037689	-0.049286	0.22263	-0.033112	-0.057678	0.023804	-0.07019	0.023499	-0.006866	0.072784	-0.078888	0.00061	-0.018005
50.958	-0.003052	-0.033875	0.1564	0.004578	0.014496	-0.002747	0.015564	-0.00351	0.031738	0.010834	0.00946	-0.015717	0.002747	0.18982	0.025482	0.010223	-0.020142	0.041351	-0.28564	-0.10544	0.001984	0.30807	-0.11276	0.037689	0.048218	-0.065002	0.012512	-0.006256	0.001221	-0.093842	-0.001678	-0.014648
50.959	-0.00351	-0.018921	0.097961	-0.006714	0.001373	0.016022	0.057983	-0.00885	0.069427	0.060425	-0.000153	-0.009918	-0.068359	0.15442	0.031586	0.009155	-0.029907	0.059357	0.1532	-0.059052	0.091095	0.34714	-0.13001	0.058441	0.05127	-0.062408	-0.082397	-0.014801	-0.18433	0.026855	-0.003052	-0.015259
50.96	0.002747	-0.035095	0.15381	0.004272	0.006714	-0.001068	0.089722	-0.010681	0.062256	0.099182	0.029144	-0.005341	-0.13611	0.16632	0.029449	0.01358	0.004425	0.068359	0.071869	0.002747	0.11932	0.42007	-0.13443	0.07309	0.045929	-0.065765	-0.1236	-0.007782	-0.54703	0.085144	-0.002594	-0.015869
50.961	-0.006561	-0.03006	0.083008	0.000916	0.009918	-0.005188	-0.007172	-0.006714	0.03067	0.27039	0.001221	-0.01236	-0.084229	0.19852	0.032349	-0.032654	0.011902	-0.071411	-0.13794	-0.000458	0.059052	0.36484	-0.072021	0.022736	0.030365	-0.061798	-0.067749	-0.007629	-0.76431	0.058899	0.000305	-0.020447
50.962	0.002136	-0.093231	0.079956	0.00351	0.005493	-0.004883	-0.11536	0.003357	0.014038	0.46661	-0.017395	0.001526	0.049438	0.1445	0.059509	-0.022736	0.020142	-0.13443	-0.14328	-0.096283	0.049591	0.38101	-0.040588	-0.005493	0.014343	-0.061951	0.012512	-0.010681	-0.91843	0.11719	-0.002136	-0.013123
50.963	0.002747	-0.052643	0.036163	-0.007019	0.005188	-0.000458	-0.050659	-0.000305	0.030518	-0.036926	-0.004425	-0.001068	-0.09491	0.1178	0.035095	0.079193	0.014648	-0.06424	0.14664	-0.23071	0.001831	0.5809	-0.021057	-0.015717	-0.001678	-0.06073	-0.001526	-0.005951	-0.024567	0.051727	-0.004883	-0.018616
50.964	-0.004425	-0.058289	0.022736	0.000763	-0.00061	0.026398	0.025177	0.010986	0.014496	-0.47531	0.024261	0.073395	-0.074158	0.035553	-0.003357	-0.37979	0.031433	-0.06012	0.086517	-0.19821	-0.16235	0.49942	-0.011444	-0.058746	-0.005188	-0.050507	-0.027008	-0.008392	0.62454	0.008545	0.001221	-0.000916
50.965	-0.004578	-0.046539	0.063171	0.005035	0.007172	0.007172	0.039673	0.010071	0.029449	-0.26581	0.02243	0.008392	-0.078583	-0.13672	-0.004425	0.4274	0.048065	-0.014801	-0.20004	-0.005341	-0.23132	0.34363	-0.03067	-0.070953	0.019226	-0.065002	0.014191	-0.004272	1.3719	-0.025024	0.000763	0.003967
50.966	0.001831	-0.036011	0.078125	0.015564	0.010529	0.006409	0.027008	-0.007477	0.030518	-0.090637	0.011139	-0.072784	-0.12146	-0.17731	0.000458	0.19836	0.050354	-0.029907	-0.21774	0.07431	-0.2243	0.35782	-0.00946	-0.055695	0.009918	-0.062714	0.079041	-0.010681	0.57877	-0.036316	-0.003052	0.000305
50.967	-0.006409	-0.032043	0.059509	0.011597	-0.01358	0	0.009308	0.010376	0.03418	0.031891	0.021057	-0.014801	-0.19348	-0.12344	0.024109	0.10864	0.030212	-0.014954	-0.31448	0.1503	0.18601	0.38254	0.002899	-0.068817	0.020294	-0.064392	0.049591	0.000458	-0.093384	-0.0737	-0.00061	0.00885
